<svg width="20" height="20" viewBox="0 0 20 20" fill="none" xmlns="http://www.w3.org/2000/svg">
<g id="vuesax/linear/volume-slash">
<g id="volume-slash">
<path id="Vector" d="M12.5 6.975V6.175C12.5 3.69167 10.775 2.74167 8.67499 4.05834L6.24166 5.58334C5.97499 5.74167 5.66666 5.83334 5.35832 5.83334H4.16666C2.49999 5.83334 1.66666 6.66667 1.66666 8.33334V11.6667C1.66666 13.3333 2.49999 14.1667 4.16666 14.1667H5.83332" stroke="#545F71" stroke-linecap="round" stroke-linejoin="round"/>
<path id="Vector_2" d="M8.67499 15.9417C10.775 17.2583 12.5 16.3 12.5 13.825V10.7917" stroke="#545F71" stroke-linecap="round" stroke-linejoin="round"/>
<path id="Vector_3" d="M15.675 7.85001C16.425 9.64167 16.2 11.7333 15 13.3333" stroke="#545F71" stroke-linecap="round" stroke-linejoin="round"/>
<path id="Vector_4" d="M17.625 6.5C18.85 9.40833 18.4833 12.8083 16.525 15.4167" stroke="#545F71" stroke-linecap="round" stroke-linejoin="round"/>
<path id="Vector_5" d="M18.3333 1.66667L1.66666 18.3333" stroke="#545F71" stroke-linecap="round" stroke-linejoin="round"/>
</g>
</g>
</svg>
