<svg width="18" height="18" viewBox="0 0 18 18" fill="none" xmlns="http://www.w3.org/2000/svg">
<g id="vuesax/linear/volume-slash">
<g id="volume-slash">
<path id="Vector" d="M11.25 6.27746V5.55746C11.25 3.32246 9.6975 2.46746 7.8075 3.65246L5.6175 5.02496C5.3775 5.16746 5.1 5.24996 4.8225 5.24996H3.75C2.25 5.24996 1.5 5.99996 1.5 7.49996V10.5C1.5 12 2.25 12.75 3.75 12.75H5.25" stroke="white" stroke-linecap="round" stroke-linejoin="round"/>
<path id="Vector_2" d="M7.80762 14.3475C9.69762 15.5325 11.2501 14.67 11.2501 12.4425V9.71252" stroke="white" stroke-linecap="round" stroke-linejoin="round"/>
<path id="Vector_3" d="M14.1075 7.06494C14.7825 8.67744 14.58 10.5599 13.5 11.9999" stroke="white" stroke-linecap="round" stroke-linejoin="round"/>
<path id="Vector_4" d="M15.8626 5.84998C16.9651 8.46748 16.6351 11.5275 14.8726 13.875" stroke="white" stroke-linecap="round" stroke-linejoin="round"/>
<path id="Vector_5" d="M16.5 1.5L1.5 16.5" stroke="white" stroke-linecap="round" stroke-linejoin="round"/>
</g>
</g>
</svg>
