<svg width="450" height="76" viewBox="0 0 450 76" fill="none" xmlns="http://www.w3.org/2000/svg">
<path d="M17.3578 29.3216C16.4068 37.1106 15.4758 44.5896 14.5868 52.0736C14.0648 56.4686 13.3748 60.8486 13.3608 65.2946C13.3458 69.9826 14.9538 71.9386 19.6138 72.8386C20.3078 72.9726 21.3798 72.9306 21.3168 73.9086C21.2428 75.0486 20.1198 74.8216 19.3718 74.7666C13.4498 74.3346 7.53181 74.1976 1.60681 74.7086C0.929805 74.7666 0.0768047 74.7266 0.00380474 73.8236C-0.0601953 73.0366 0.695805 72.8356 1.3228 72.7916C5.43181 72.5026 7.07081 69.9386 7.71481 66.2096C9.08581 58.2766 9.92481 50.2736 10.9848 42.3006C12.2578 32.7186 13.4018 23.1196 14.5888 13.5266C14.7418 12.2896 14.7838 11.0386 14.9428 9.80259C15.0198 9.20659 15.0848 8.4796 15.9178 8.4136C16.6098 8.3596 16.8708 8.94058 17.1098 9.43958C18.7528 12.8736 20.3588 16.3266 22.0118 19.7556C28.2978 32.7996 34.5958 45.8396 40.9018 58.8746C41.1068 59.2986 41.2018 59.8446 41.9048 60.0716C43.1298 58.1516 43.8908 55.9766 44.8298 53.9006C51.4178 39.3456 57.9678 24.7726 64.5408 10.2106C64.8618 9.49859 65.0568 8.47058 66.0678 8.55158C67.1708 8.63958 67.0128 9.70759 67.1208 10.4726C69.0978 24.5536 71.0528 38.6376 73.0368 52.7176C73.6628 57.1626 74.1858 61.6246 75.2778 65.9956C76.1698 69.5676 77.7598 72.4046 81.8188 73.0016C82.3488 73.0796 83.0418 73.2316 82.9668 73.9766C82.8958 74.6896 82.2178 74.7796 81.6658 74.7616C80.2338 74.7146 78.8058 74.5506 77.3748 74.5046C72.5078 74.3486 67.6408 74.2946 62.7778 74.6716C61.9748 74.7336 61.1578 74.6956 60.3538 74.6286C59.9018 74.5916 59.4998 74.3176 59.4778 73.8046C59.4558 73.2956 59.8258 73.0086 60.2688 72.8866C61.1108 72.6556 61.9768 72.5096 62.8118 72.2586C65.3848 71.4866 66.2388 70.1786 66.0088 67.5356C65.3918 60.4486 64.2768 53.4236 63.3738 46.3726C62.6918 41.0536 61.9448 35.7426 61.2228 30.4276C61.1658 30.0116 61.2738 29.5336 60.6518 29.1146C60.0238 30.4786 59.3938 31.8016 58.7998 33.1406C52.8008 46.6606 46.8108 60.1846 40.8058 73.7016C40.5168 74.3516 40.4138 75.3486 39.4788 75.2956C38.7148 75.2516 38.5658 74.3516 38.2948 73.7446C32.0088 59.6676 25.6108 45.6436 18.8838 31.7716C18.5098 31.0046 18.3178 30.1206 17.3578 29.3216Z" fill="white"/>
<path d="M235.282 75.2146C228.381 75.3186 221.686 74.2606 215.516 71.0656C205.805 66.0386 201.159 57.6126 199.862 47.0396C199.209 41.7186 199.346 36.4326 200.756 31.2566C204.259 18.4036 213.082 11.5096 225.841 9.05461C232.794 7.71661 239.612 8.68561 246.457 9.91861C249.477 10.4626 252.496 11.6496 255.66 10.5436C256.379 10.2926 256.727 10.7756 256.665 11.4626C256.335 15.1326 256.21 18.8096 256.211 22.4926C256.211 22.9406 256.093 23.4296 255.594 23.5346C254.951 23.6706 254.733 23.1456 254.595 22.6546C253.917 20.2416 252.39 18.4466 250.333 17.1526C241.936 11.8706 232.982 9.95961 223.367 13.2186C216.327 15.6056 212.177 20.8346 210.402 27.8436C207.762 38.2706 208.626 48.4156 213.915 57.9406C219.963 68.8316 232.08 73.9386 244.113 70.7256C249.187 69.3706 253.198 66.6586 255.129 61.4976C255.34 60.9346 255.56 60.1796 256.394 60.4436C257.068 60.6576 256.985 61.3456 256.902 61.8946C256.466 64.7906 256.098 67.6966 255.179 70.5046C254.723 71.8976 253.915 72.6406 252.49 73.0216C246.848 74.5316 241.117 75.2556 235.282 75.2146Z" fill="white"/>
<path d="M268.096 41.8716C267.882 36.3876 268.412 30.8926 267.765 25.4126C267.505 23.2086 266.533 21.8306 264.236 21.4846C263.636 21.3946 262.611 21.3616 262.76 20.4296C262.903 19.5346 263.829 19.8076 264.485 19.8426C269.664 20.1196 274.842 20.0876 280.02 19.8416C280.735 19.8076 281.748 19.5256 281.843 20.5346C281.923 21.3836 280.895 21.3676 280.267 21.5166C276.898 22.3126 275.998 23.2576 275.749 26.6906C274.956 37.6036 275.375 48.5246 275.801 59.4326C276.038 65.5076 279.434 69.2026 285.38 70.5446C289.709 71.5226 294.069 71.4376 298.35 70.2826C304.73 68.5606 307.962 64.3086 308.08 57.1126C308.226 48.1886 308.144 39.2606 308.095 30.3346C308.087 28.9136 307.796 27.4836 307.537 26.0756C307.084 23.6126 305.666 22.0636 303.126 21.6196C302.488 21.5076 301.533 21.5036 301.637 20.5786C301.725 19.7986 302.6 19.9436 303.197 19.9476C307.752 19.9816 312.308 20.1996 316.86 19.8016C317.345 19.7596 317.968 19.7506 318.097 20.3626C318.236 21.0206 317.628 21.1186 317.155 21.2836C312.709 22.8366 312.143 23.5366 312.104 28.4216C312.035 37.0356 312.047 45.6496 312.059 54.2646C312.062 56.4576 311.905 58.6376 311.536 60.7866C310.311 67.9156 305.916 72.1946 299.081 73.9516C292.014 75.7676 284.96 75.4116 278.1 72.8876C271.908 70.6096 269.014 65.8776 268.408 59.4606C267.852 53.5996 268.245 47.7326 268.096 41.8716Z" fill="white"/>
<path d="M420.54 54.6386C418.105 54.6386 415.671 54.6526 413.236 54.6316C412.357 54.6236 411.662 54.7906 411.297 55.7256C409.866 59.3856 408.397 63.0306 406.954 66.6866C406.818 67.0316 406.75 67.4076 406.676 67.7746C406.149 70.3896 406.426 72.6256 409.715 73.0166C410.172 73.0706 410.855 73.1266 410.776 73.8086C410.704 74.4316 410.072 74.3976 409.578 74.4346C409.392 74.4486 409.202 74.4546 409.017 74.4396C404.782 74.0986 400.548 74.0996 396.31 74.4226C395.675 74.4706 394.681 74.6876 394.568 73.8246C394.451 72.9296 395.49 72.9686 396.104 72.8316C398.418 72.3136 399.634 70.5636 400.705 68.7196C403.409 64.0636 405.273 59.0146 407.395 54.0886C412.062 43.2576 416.678 32.4046 421.336 21.5686C421.641 20.8576 421.764 19.7556 422.723 19.7586C423.788 19.7616 423.9 20.9056 424.206 21.6896C429.897 36.2816 435.595 50.8716 441.61 65.3346C442.182 66.7096 442.957 68.0066 443.706 69.3016C444.818 71.2266 446.454 72.4996 448.632 73.0536C449.205 73.1996 450.097 73.1816 449.989 74.0096C449.871 74.9176 448.951 74.7346 448.303 74.7176C447.37 74.6926 446.441 74.5116 445.507 74.4866C440.951 74.3636 436.395 74.3316 431.841 74.5746C431.176 74.6096 430.262 74.8426 430.098 73.9786C429.911 72.9886 430.963 73.1036 431.55 72.9326C434.34 72.1206 434.948 71.2426 434.243 68.4626C433.119 64.0346 431.181 59.8896 429.626 55.6106C429.306 54.7296 428.646 54.5896 427.843 54.5926C425.408 54.6036 422.974 54.5966 420.539 54.5966C420.54 54.6106 420.54 54.6246 420.54 54.6386ZM420.854 32.6306C418.393 38.6856 416.098 44.3456 413.79 49.9996C413.395 50.9666 413.942 51.0566 414.675 51.0506C418.546 51.0216 422.418 50.9766 426.289 50.9866C427.617 50.9906 427.72 50.4626 427.286 49.3696C426.017 46.1796 424.814 42.9636 423.586 39.7586C422.723 37.5066 421.86 35.2556 420.854 32.6306Z" fill="white"/>
<path d="M152.308 54.6386C149.936 54.6386 147.565 54.6426 145.193 54.6366C144.417 54.6346 143.646 54.6646 143.316 55.5306C141.675 59.8346 139.368 63.8946 138.491 68.4786C137.969 71.2086 138.668 72.2256 141.354 72.9246C141.895 73.0656 142.853 72.9466 142.706 73.8366C142.58 74.5996 141.709 74.4676 141.114 74.4306C136.754 74.1596 132.396 74.0596 128.035 74.4266C127.447 74.4756 126.572 74.6146 126.438 73.8496C126.287 72.9856 127.231 73.0086 127.777 72.8976C130.236 72.3966 131.576 70.6326 132.692 68.6286C135.706 63.2176 137.855 57.4136 140.297 51.7426C144.59 41.7716 148.85 31.7866 153.125 21.8086C153.297 21.4076 153.476 21.0076 153.677 20.6206C154.337 19.3526 155.037 19.4866 155.679 20.6186C155.953 21.1026 156.114 21.6516 156.318 22.1736C161.913 36.5316 167.512 50.8886 173.418 65.1226C174.013 66.5556 174.798 67.9196 175.593 69.2566C176.72 71.1516 178.337 72.4636 180.513 73.0306C181.082 73.1786 181.979 73.1626 181.869 73.9896C181.75 74.8816 180.834 74.7336 180.183 74.7116C178.439 74.6536 176.698 74.4876 174.954 74.4426C171.21 74.3466 167.467 74.3636 163.726 74.5916C163.066 74.6316 162.135 74.8326 161.99 73.9726C161.827 73.0006 162.873 73.1236 163.463 72.9546C166.305 72.1406 166.826 71.4016 166.136 68.5086C165.075 64.0626 163.094 59.9336 161.551 55.6536C161.206 54.6946 160.479 54.5786 159.608 54.5866C157.174 54.6086 154.74 54.5946 152.306 54.5946C152.308 54.6086 152.308 54.6236 152.308 54.6386ZM152.989 33.1996C152.832 33.1936 152.675 33.1876 152.518 33.1816C151.451 35.8286 150.386 38.4756 149.317 41.1226C148.174 43.9546 147.02 46.7816 145.889 49.6176C145.631 50.2636 145.297 51.0386 146.507 51.0356C150.559 51.0256 154.611 50.9876 158.663 50.9636C159.391 50.9596 159.699 50.7276 159.396 49.9406C157.249 44.3646 155.122 38.7806 152.989 33.1996Z" fill="white"/>
<path d="M377.646 45.0616C377.646 51.1156 377.649 57.1696 377.644 63.2236C377.643 64.7226 377.73 66.2096 377.938 67.6996C378.463 71.4716 379.17 72.2416 382.815 73.0216C383.576 73.1846 385.013 72.8166 384.885 73.9856C384.76 75.1206 383.354 74.7896 382.496 74.7276C376.761 74.3086 371.031 74.2376 365.296 74.7126C364.665 74.7646 363.713 74.8816 363.666 73.9416C363.626 73.1526 364.519 73.1396 365.1 73.0586C368.124 72.6356 369.551 70.8336 369.719 67.8756C369.765 67.0686 369.952 66.2646 369.954 65.4596C369.979 53.2896 369.993 41.1196 369.977 28.9496C369.976 27.8356 369.782 26.7186 369.634 25.6086C369.328 23.3196 368.098 21.8526 365.79 21.3496C365.264 21.2356 364.5 21.2086 364.536 20.4896C364.576 19.6706 365.379 19.6516 365.982 19.6676C367.164 19.6986 368.343 19.8626 369.525 19.9146C374.523 20.1346 379.494 19.5776 384.477 19.3776C388 19.2366 391.466 19.6146 394.715 21.0996C400.543 23.7626 403.08 30.0526 401.46 37.6986C399.644 46.2676 392.466 51.4226 383.691 50.4486C383.262 50.4006 382.836 50.2806 382.423 50.1506C382.053 50.0346 381.697 49.8026 381.773 49.3656C381.849 48.9306 382.26 48.8326 382.649 48.8326C383.46 48.8316 384.271 48.8496 385.082 48.8676C388.971 48.9516 391.663 47.0586 393.182 43.6166C395.119 39.2286 395.336 34.6416 393.843 30.0906C392.318 25.4416 388.172 22.5346 382.952 22.3946C376.367 22.2176 377.695 22.3156 377.613 27.4626C377.52 33.3276 377.592 39.1956 377.592 45.0626C377.61 45.0616 377.628 45.0616 377.646 45.0616Z" fill="white"/>
<path d="M104.778 74.4476C100.285 74.4476 95.7908 74.4596 91.2978 74.4346C90.6728 74.4316 89.7118 74.7016 89.6378 73.7416C89.5788 72.9786 90.4718 72.9526 91.0508 72.8036C94.4538 71.9246 94.9298 71.3126 95.3878 67.9116C95.8828 64.2406 95.6978 60.5586 95.7108 56.8826C95.7438 47.0846 95.7148 37.2856 95.6918 27.4876C95.6898 26.5566 95.5878 25.6226 95.4888 24.6946C95.2878 22.8106 94.2498 21.7886 92.3358 21.6206C91.7028 21.5656 90.6968 21.6386 90.8128 20.6976C90.9158 19.8606 91.8878 20.0246 92.5418 20.0206C99.2188 19.9796 105.897 19.9886 112.574 19.9166C114.754 19.8936 116.934 19.7146 119.109 19.5326C120.272 19.4356 120.688 19.8846 120.64 21.0156C120.565 22.7606 120.583 24.5096 120.529 26.2556C120.516 26.6796 120.453 27.1806 119.891 27.2566C119.421 27.3196 119.231 26.9236 119.134 26.5706C118.361 23.7426 115.962 23.3656 113.668 23.2016C110.75 22.9926 107.806 23.1556 104.874 23.1216C103.766 23.1086 103.354 23.6036 103.276 24.6886C102.837 30.8616 103.165 37.0406 103.064 43.2156C103.05 44.0936 103.313 44.6756 104.323 44.6496C107.75 44.5606 111.182 44.8606 114.606 44.4476C116.51 44.2186 117.948 43.5196 118.392 41.4576C118.488 41.0136 118.651 40.3726 119.354 40.6076C119.869 40.7806 119.818 41.3176 119.748 41.7396C119.201 45.0276 119.439 48.3376 119.436 51.6416C119.436 52.2246 119.572 53.0726 118.708 53.0846C117.98 53.0946 118.082 52.2636 117.971 51.7566C117.301 48.6826 117.076 48.4946 113.979 48.1066C110.805 47.7086 107.621 47.9586 104.443 47.8606C103.57 47.8336 103.205 48.1646 103.238 49.0656C103.461 55.1716 102.995 61.2936 103.726 67.3916C103.955 69.3026 104.838 70.2766 106.75 70.5606C110.12 71.0606 113.47 70.9996 116.81 70.4326C118.392 70.1636 119.757 69.4446 120.625 67.9826C120.873 67.5646 121.211 67.0326 121.798 67.3856C122.232 67.6466 122.086 68.1636 121.944 68.5856C121.404 70.1806 120.831 71.7656 120.32 73.3696C119.979 74.4406 119.207 74.5156 118.258 74.5086C113.765 74.4766 109.272 74.4946 104.778 74.4946C104.778 74.4806 104.778 74.4636 104.778 74.4476Z" fill="white"/>
<path d="M338.731 74.3896C334.967 74.4786 330.407 74.2466 325.861 74.7046C325.432 74.7476 324.985 74.7206 324.558 74.6556C324.189 74.5996 323.803 74.4496 323.794 73.9816C323.785 73.5286 324.151 73.3686 324.506 73.2316C324.621 73.1866 324.746 73.1496 324.868 73.1426C329.523 72.8446 329.532 70.2116 329.805 66.6096C330.027 63.6906 329.917 60.7446 329.916 57.8106C329.914 48.3216 329.903 38.8326 329.869 29.3436C329.865 28.2266 329.751 27.1006 329.582 25.9946C329.072 22.6676 328.84 22.4456 325.483 21.6366C324.948 21.5076 324.24 21.5046 324.314 20.7296C324.374 20.1056 325.015 20.0576 325.495 20.0546C331.175 20.0156 336.856 19.9966 342.536 19.9886C343.027 19.9876 343.664 20.0196 343.717 20.6406C343.78 21.3756 343.091 21.5426 342.548 21.5756C338.688 21.8116 337.609 23.5856 337.58 27.6736C337.496 39.4716 337.551 51.2696 337.603 63.0686C337.611 64.8086 337.895 66.5476 338.057 68.2866C338.208 69.9096 339.124 70.8026 340.732 70.8366C345.033 70.9266 349.345 71.2446 353.62 70.4846C355.796 70.0976 357.648 69.1836 358.71 67.0836C358.944 66.6206 359.195 65.8716 359.897 66.2436C360.536 66.5816 360.168 67.2626 359.988 67.7626C359.291 69.6986 358.503 71.6036 357.846 73.5526C357.414 74.8326 356.447 74.8236 355.43 74.7576C350.131 74.4116 344.825 74.4606 338.731 74.3896Z" fill="white"/>
<path d="M182.147 13.0606C179.815 13.5486 178.449 12.8956 177.391 11.4956C176.565 10.4026 175.787 9.2726 174.98 8.1656C174.589 7.6296 174.092 7.27159 173.388 7.43759C172.55 7.63559 172.626 8.35059 172.654 8.94859C172.714 10.2076 172.221 11.6586 174.107 12.4776C172.432 13.2116 171.062 12.8826 169.896 12.8246C170.809 8.55159 171.227 4.40159 169.609 0.121592C171.272 0.121592 173.142 -0.0664102 174.958 0.16659C177.549 0.49959 178.572 3.0926 177.032 5.4566C176.345 6.5116 176.437 7.11459 177.187 8.00759C178.611 9.70459 179.754 11.6466 182.147 13.0606ZM175.861 4.06259C175.823 2.42159 174.698 0.942585 173.604 1.12058C171.963 1.38658 172.872 2.79259 172.627 3.68659C172.595 3.80259 172.619 3.93459 172.624 4.05859C172.659 5.04259 172.47 6.1906 174.018 6.1506C175.51 6.1116 175.839 5.10559 175.861 4.06259Z" fill="white"/>
<path d="M130.604 12.9366C128.686 13.6966 127.394 13.0996 126.369 11.9486C125.379 10.8366 124.539 9.58662 123.679 8.36562C123.163 7.63362 122.553 7.14462 121.644 7.45862C120.762 7.76362 121.055 8.59162 121.033 9.23462C120.989 10.5096 121.148 11.7266 122.643 12.5166C121.24 13.2286 120 12.8546 118.815 12.8776C118.248 12.8886 118.239 12.6036 118.432 12.0116C119.537 8.62262 118.831 5.12962 118.834 1.67862C118.834 1.23962 118.271 0.800623 117.807 0.124623C119.861 0.124623 121.728 -0.0613789 123.541 0.169621C126.027 0.487621 127.075 3.10262 125.583 5.34362C124.827 6.47962 124.98 7.17761 125.763 8.09061C127.197 9.76461 128.247 11.7876 130.604 12.9366ZM120.965 3.39661C121.247 4.48461 120.34 6.14662 122.481 6.16762C124.034 6.18262 124.281 5.15862 124.265 3.92562C124.243 2.22862 123.262 0.943623 121.998 1.08362C120.351 1.26662 121.31 2.63661 120.965 3.39661Z" fill="white"/>
<path d="M167.744 12.9606C165.987 13.5776 164.611 13.0526 163.554 11.7446C162.616 10.5846 161.771 9.34858 160.898 8.13658C160.448 7.51158 159.864 7.22257 159.121 7.45257C158.309 7.70357 158.489 8.43659 158.485 9.02759C158.477 10.3126 158.296 11.6626 159.765 12.4426C158.87 13.1566 158.099 12.8866 157.386 12.9116C156.306 12.9506 155.459 13.2826 156.154 11.3296C156.846 9.38557 156.442 7.02658 156.391 4.85258C156.354 3.30358 156.984 1.57858 154.83 0.128585C157.315 0.128585 159.185 -0.0614254 160.998 0.174575C163.475 0.496575 164.5 3.10957 163.018 5.35557C162.28 6.47357 162.367 7.17158 163.19 8.09958C164.651 9.74658 165.642 11.8286 167.744 12.9606ZM161.704 3.96358C161.714 2.27458 160.699 0.89558 159.444 1.09558C157.776 1.36058 158.728 2.77659 158.472 3.66759C158.439 3.78259 158.464 3.91559 158.469 4.04059C158.504 5.01459 158.254 6.15259 159.826 6.16959C161.364 6.18759 161.708 5.23458 161.704 3.96358Z" fill="white"/>
<path d="M136.325 0.079592C137.984 0.079592 139.795 -0.032401 141.586 0.108599C143.691 0.274599 144.853 2.01861 144.448 4.10961C144.001 6.41461 142.188 7.63059 139.707 6.96759C141.705 6.44659 142.753 5.4266 142.498 3.4966C142.376 2.5726 141.978 1.83559 141.156 1.36859C139.843 0.622593 139 1.06661 138.979 2.58161C138.943 5.14061 139.015 7.70059 138.959 10.2586C138.935 11.3356 139.363 12.0316 140.799 12.6156C138.833 13.1256 137.38 12.9676 136.073 12.8186C137.464 8.57561 137.098 4.45859 136.325 0.079592Z" fill="white"/>
<path d="M115.129 5.0466C115.373 6.0296 115.405 6.8066 115.039 7.7066C114.002 7.1276 112.638 6.2176 111.883 7.2256C111.113 8.2546 111.18 10.0746 111.925 11.1326C112.77 12.3316 114.289 11.6356 115.537 11.1726C115.303 13.0796 112.991 13.5596 108.747 12.7306C110.058 8.90359 109.771 5.00359 109.101 1.13159C108.964 0.337591 108.931 0.117597 109.688 0.106597C111.309 0.0825967 112.93 0.0885979 114.551 0.0765979C115.313 0.0705979 115.515 0.516598 115.449 1.1736C115.377 1.8916 115.041 1.7116 114.562 1.4946C113.655 1.0846 112.408 0.528597 111.85 1.5226C111.236 2.6156 111.148 4.24859 111.911 5.27359C112.652 6.26959 113.952 5.6586 115.129 5.0466Z" fill="white"/>
<path d="M145.838 12.5826C147.132 11.4076 147.058 9.8896 146.96 8.4296C146.791 5.9116 147.558 3.3216 146.413 0.875598C146.184 0.385598 146.453 0.141599 146.889 0.136599C148.633 0.114599 150.379 0.102599 152.122 0.151599C152.782 0.170599 152.909 0.731596 152.776 1.2546C152.581 2.0176 152.111 1.5106 151.757 1.3946C150.872 1.1026 149.748 0.577597 149.251 1.5996C148.72 2.6926 148.617 4.2346 149.304 5.2076C150.101 6.3376 151.43 5.5616 152.485 5.1366C152.902 5.6126 152.721 6.13061 152.728 6.61161C152.741 7.51661 152.603 7.9596 151.597 7.2016C150.952 6.7156 149.885 6.6056 149.375 7.3306C148.661 8.3456 149.02 9.6236 149.164 10.7826C149.277 11.6906 150.07 11.7136 150.765 11.6746C151.486 11.6346 152.202 11.4966 152.938 11.3986C152.555 13.0316 149.514 13.5526 145.838 12.5826Z" fill="white"/>
<path d="M75.8488 12.6306C76.1508 11.9726 76.8928 11.8246 76.8968 11.1776C76.9168 8.1866 76.9828 5.19259 76.8888 2.20459C76.8558 1.15059 75.8138 1.43059 75.1028 1.36259C74.3068 1.28659 73.6838 1.68959 72.8648 2.22459C72.7098 0.772593 72.6868 -0.122406 74.5328 0.0135941C76.8288 0.182594 79.1448 0.0655922 81.4518 0.0865922C81.9468 0.0915922 82.4818 0.0535926 82.9258 0.224593C83.5728 0.473593 83.5638 1.1316 83.3898 1.6696C83.1488 2.4136 82.7598 1.87259 82.3888 1.72059C79.9158 0.709595 79.0398 1.26359 79.0368 3.82159C79.0348 5.63059 79.0478 7.4386 79.0398 9.2476C79.0348 10.4796 78.9158 11.7396 80.3318 12.5386C78.6328 13.0426 77.5418 13.0546 75.8488 12.6306Z" fill="white"/>
<path d="M96.1008 0.304578C91.8408 4.25458 90.4358 9.76258 92.7608 12.5846C91.3348 13.0576 90.2568 13.0716 88.7318 12.6356C91.3488 9.28757 88.8658 3.95359 84.8318 0.374585C86.5088 -0.273415 87.7428 0.0575764 88.6418 1.57158C89.3948 2.83858 90.1708 4.09258 90.9508 5.37558C92.8658 3.68358 92.6818 0.105578 96.1008 0.304578Z" fill="white"/>
<path d="M189.103 12.7116C187.676 13.0676 186.332 13.0436 184.898 12.7386C187.644 9.15958 184.943 3.90358 181.015 0.443585C182.482 -0.168415 183.688 -0.176429 184.583 1.21757C185.449 2.56657 186.261 3.95157 187.106 5.33657C189.124 3.80357 188.863 0.0205857 192.44 0.316586C190.472 1.76659 189.305 3.85058 188.469 5.97758C187.623 8.13158 187.437 10.5086 189.103 12.7116Z" fill="white"/>
<path d="M198.87 9.7296C199.2 10.3206 199.338 10.6676 199.561 10.9476C200.53 12.1646 202.374 12.3276 203.365 11.3056C204.303 10.3396 204.117 8.9446 202.861 7.9046C202.335 7.4696 201.73 7.1316 201.162 6.7476C198.964 5.2626 198.25 3.82859 198.868 2.13859C199.436 0.584593 200.989 -0.0584016 203.429 0.0185984C205.124 0.0715984 205.409 0.893599 205.054 2.4756C204.115 1.8766 203.558 0.80359 202.332 0.96359C201.621 1.05659 200.937 1.1306 200.604 1.8506C200.256 2.6006 200.407 3.30659 200.954 3.93159C201.67 4.74859 202.672 5.16359 203.529 5.78059C205.587 7.26159 206.157 8.77359 205.34 10.5366C204.504 12.3396 202.411 13.3026 200.3 12.8556C198.575 12.4876 198.298 11.9806 198.87 9.7296Z" fill="white"/>
<path d="M106.496 10.9076C106.433 12.1166 106.141 12.9056 105.031 12.9266C102.868 12.9666 100.703 12.9386 98.0808 12.9386C99.8308 11.4036 99.5428 9.69758 99.4198 8.10758C99.2328 5.67358 100.12 3.14959 98.8198 0.800593C98.5408 0.296593 98.9728 0.137589 99.3638 0.127589C100.403 0.101589 101.443 0.118586 103.018 0.118586C101.435 1.32359 101.472 2.59959 101.501 3.89559C101.539 5.57359 101.506 7.2536 101.519 8.9326C101.539 11.6186 102.517 12.3426 105.122 11.5756C105.526 11.4566 105.891 11.2066 106.496 10.9076Z" fill="white"/>
</svg>
